<svg xmlns="http://www.w3.org/2000/svg" width="25.002" height="26.064" viewBox="0 0 25.002 26.064">
  <g id="Icon" transform="translate(-1.688 -1.25)">
    <path id="Path_12" data-name="Path 12" d="M12.652,1.886a2.175,2.175,0,0,1,3.074,0l1.752,1.752a.354.354,0,0,0,.307.1l2.446-.387a2.173,2.173,0,0,1,2.488,1.806L23.106,7.6a.358.358,0,0,0,.19.262L25.5,8.989a2.173,2.173,0,0,1,.95,2.924l-1.124,2.208a.352.352,0,0,0,0,.322l1.124,2.208a2.173,2.173,0,0,1-.95,2.924L23.3,20.7a.358.358,0,0,0-.19.262l-.387,2.446a2.173,2.173,0,0,1-2.488,1.806l-2.446-.387a.354.354,0,0,0-.307.1l-1.752,1.752a2.175,2.175,0,0,1-3.074,0L10.9,24.926a.354.354,0,0,0-.307-.1l-2.446.387a2.173,2.173,0,0,1-2.488-1.806l-.387-2.446a.358.358,0,0,0-.19-.262L2.876,19.575a2.173,2.173,0,0,1-.95-2.924l1.124-2.208a.352.352,0,0,0,0-.322L1.926,11.913a2.173,2.173,0,0,1,.95-2.924L5.082,7.866a.358.358,0,0,0,.19-.262l.387-2.446A2.173,2.173,0,0,1,8.147,3.351l2.446.387a.354.354,0,0,0,.307-.1ZM9.3,14.925l2.828,2.83a.909.909,0,0,0,1.286,0L19.075,12.1A.909.909,0,0,0,17.79,10.81l-5.015,5.015L10.589,13.64A.909.909,0,0,0,9.3,14.925Z" fill="#fce516" fill-rule="evenodd"/>
  </g>
</svg>
