<svg xmlns="http://www.w3.org/2000/svg" width="30.988" height="29.63" viewBox="0 0 30.988 29.63">
  <g id="stamp_1_" data-name="stamp (1)" transform="translate(-4 -5.228)">
    <path id="Path_18" data-name="Path 18" d="M25.581,42.773H5.66A1.665,1.665,0,0,0,4,44.433v3.32a.555.555,0,0,0,.553.553H26.688a.555.555,0,0,0,.553-.553v-3.32A1.665,1.665,0,0,0,25.581,42.773Z" transform="translate(0 -16.769)" fill="#b9444c"/>
    <path id="Path_19" data-name="Path 19" d="M9.155,56.986H24.372a2.631,2.631,0,0,0,2.6-2.213H6.56a2.631,2.631,0,0,0,2.6,2.213Z" transform="translate(-1.143 -22.129)" fill="#b9444c"/>
    <path id="Path_20" data-name="Path 20" d="M17.814,20.747h5.434A18.645,18.645,0,0,1,25.3,13.708c2.066-3.364-.258-8.216-4.272-8.455a5.461,5.461,0,0,0-5.368,2.916,5.715,5.715,0,0,0,.1,5.539A18.644,18.644,0,0,1,17.814,20.747Z" transform="translate(-4.911)" fill="#b9444c"/>
    <path id="Path_21" data-name="Path 21" d="M24.3,35.273H17.66A1.665,1.665,0,0,0,16,36.933v1.383h9.96V36.933A1.665,1.665,0,0,0,24.3,35.273Z" transform="translate(-5.36 -13.42)" fill="#b9444c"/>
    <path id="Path_22" data-name="Path 22" d="M42.64,12.273a6.64,6.64,0,1,0,6.64,6.64,6.646,6.646,0,0,0-6.64-6.64Zm2.883,5.373-3.32,3.32a.563.563,0,0,1-.786,0l-1.66-1.66a.556.556,0,1,1,.786-.786l1.267,1.273,2.927-2.933a.556.556,0,1,1,.786.786Z" transform="translate(-14.293 -3.147)" fill="#b9444c"/>
  </g>
</svg>
