<svg xmlns="http://www.w3.org/2000/svg" width="35.912" height="27" viewBox="0 0 35.912 27">
  <g id="fast-time_1_" data-name="fast-time (1)" transform="translate(0 -63.529)">
    <circle id="Ellipse_3" data-name="Ellipse 3" cx="12.974" cy="12.974" r="12.974" transform="translate(9.438 64.055)" fill="#95d6a4"/>
    <path id="Path_43" data-name="Path 43" d="M306.587,71.029q-.493,0-.976.036a12.974,12.974,0,0,1,0,25.875q.483.036.976.036a12.974,12.974,0,1,0,0-25.948Z" transform="translate(-284.175 -6.974)" fill="#78c2a4"/>
    <circle id="Ellipse_4" data-name="Ellipse 4" cx="9.962" cy="9.962" r="9.962" transform="translate(12.45 67.067)" fill="#f4fbff"/>
    <path id="Path_44" data-name="Path 44" d="M307.61,113.967c-.3,0-.6.014-.9.041a9.962,9.962,0,0,1,0,19.843c.3.026.6.041.9.041a9.962,9.962,0,0,0,0-19.925Z" transform="translate(-285.198 -46.9)" fill="#daf1f4"/>
    <g id="Group_25" data-name="Group 25" transform="translate(0 63.529)">
      <path id="Path_45" data-name="Path 45" d="M31.9,135.262h5.548a.526.526,0,1,0,0-1.052H31.9a.526.526,0,1,0,0,1.052Z" transform="translate(-29.172 -129.252)"/>
      <path id="Path_46" data-name="Path 46" d="M79.23,185.317H77.038a.526.526,0,1,0,0,1.052H79.23a.526.526,0,1,0,0-1.052Z" transform="translate(-71.145 -176.775)"/>
      <path id="Path_47" data-name="Path 47" d="M.526,223.379H5.893a.526.526,0,0,0,0-1.052H.526a.526.526,0,0,0,0,1.052Z" transform="translate(0 -211.189)"/>
      <path id="Path_48" data-name="Path 48" d="M37.972,363.315a.526.526,0,0,0-.526-.526H31.9a.526.526,0,1,0,0,1.052h5.548A.526.526,0,0,0,37.972,363.315Z" transform="translate(-29.172 -341.799)"/>
      <path id="Path_49" data-name="Path 49" d="M79.23,311.683H77.038a.526.526,0,0,0,0,1.052H79.23a.526.526,0,0,0,0-1.052Z" transform="translate(-71.145 -294.277)"/>
      <path id="Path_50" data-name="Path 50" d="M6.419,275.2a.526.526,0,0,0-.526-.526H.526a.526.526,0,1,0,0,1.052H5.893A.526.526,0,0,0,6.419,275.2Z" transform="translate(0 -259.863)"/>
      <path id="Path_51" data-name="Path 51" d="M312.555,141.237a.526.526,0,0,0,.526-.526v-.8a.526.526,0,1,0-1.052,0v.8A.526.526,0,0,0,312.555,141.237Z" transform="translate(-290.143 -134.062)"/>
      <path id="Path_52" data-name="Path 52" d="M382.557,171.5a.526.526,0,0,0-.744,0l-.568.568a.526.526,0,1,0,.744.744l.568-.568A.526.526,0,0,0,382.557,171.5Z" transform="translate(-354.361 -163.78)"/>
      <path id="Path_53" data-name="Path 53" d="M410.225,248.5a.526.526,0,0,0,0,1.052h.8a.526.526,0,0,0,0-1.052Z" transform="translate(-380.963 -235.526)"/>
      <path id="Path_54" data-name="Path 54" d="M381.989,317.717a.526.526,0,0,0-.744.744l.568.568a.526.526,0,0,0,.744-.744Z" transform="translate(-354.361 -299.745)"/>
      <path id="Path_55" data-name="Path 55" d="M312.029,346.7v.8a.526.526,0,1,0,1.052,0v-.8a.526.526,0,1,0-1.052,0Z" transform="translate(-290.143 -326.345)"/>
      <path id="Path_56" data-name="Path 56" d="M235.592,317.717l-.568.568a.526.526,0,0,0,.744.744l.568-.568a.526.526,0,0,0-.744-.744Z" transform="translate(-218.396 -299.745)"/>
      <path id="Path_57" data-name="Path 57" d="M203.437,248.5a.526.526,0,0,0,0,1.052h.8a.526.526,0,0,0,0-1.052Z" transform="translate(-188.679 -235.526)"/>
      <path id="Path_58" data-name="Path 58" d="M236.337,172.064l-.568-.568a.526.526,0,1,0-.744.744l.568.568a.526.526,0,1,0,.744-.744Z" transform="translate(-218.397 -163.78)"/>
      <path id="Path_59" data-name="Path 59" d="M315.384,190.274a.526.526,0,0,0-.526-.526h-1.777v-3.906a.526.526,0,1,0-1.052,0v4.432a.526.526,0,0,0,.526.526h2.3A.526.526,0,0,0,315.384,190.274Z" transform="translate(-290.143 -176.774)"/>
      <path id="Path_60" data-name="Path 60" d="M190.459,116.869a.526.526,0,0,0,.493-.557,10.481,10.481,0,1,0-.1,2.213.526.526,0,1,0-1.04-.156,9.443,9.443,0,1,1,.087-1.993.526.526,0,0,0,.557.493Z" transform="translate(-158.072 -103.456)"/>
      <path id="Path_61" data-name="Path 61" d="M118.821,63.529a13.5,13.5,0,0,0-5.332,1.1h-9.282a.526.526,0,1,0,0,1.052h7.3a13.486,13.486,0,0,0-2.7,2.287.526.526,0,0,0,.78.706,12.423,12.423,0,1,1-1.233,1.606.526.526,0,0,0-.884-.571,13.5,13.5,0,0,0,4.038,18.664h-7.306a.526.526,0,0,0,0,1.052h9.274a13.5,13.5,0,1,0,5.339-25.9Z" transform="translate(-96.409 -63.529)"/>
    </g>
  </g>
</svg>
