<?xml version="1.0" encoding="utf-8"?>
<!-- Generator: Adobe Illustrator 24.1.2, SVG Export Plug-In . SVG Version: 6.00 Build 0)  -->
<svg version="1.1" id="Layer_1" xmlns="http://www.w3.org/2000/svg" xmlns:xlink="http://www.w3.org/1999/xlink" x="0px" y="0px"
	 viewBox="0 0 246 56" style="enable-background:new 0 0 246 56;" xml:space="preserve">
<style type="text/css">
	.st0{display:none;}
	.st1{display:inline;fill:#07162D;}
	.st2{display:inline;}
	.st3{fill:#FFFFFF;stroke:#FFFFFF;stroke-miterlimit:10;}
	.st4{fill-rule:evenodd;clip-rule:evenodd;fill:#FFFFFF;}
	.st5{fill:#231F20;}
	.st6{fill-rule:evenodd;clip-rule:evenodd;fill:#DA2128;}
	.st7{fill-rule:evenodd;clip-rule:evenodd;fill:#231F20;}
	.st8{fill-rule:evenodd;clip-rule:evenodd;fill:#17479D;}
	.st9{fill-rule:evenodd;clip-rule:evenodd;}
</style>
<g class="st0">
	<rect x="0.5" y="0.5" class="st1" width="245" height="55"/>
	<path class="st2" d="M245,1v54H1V1H245 M246,0H0v56h246V0L246,0z"/>
</g>
<g>
	<path class="st3" d="M47.58,24.57C47.58,24.58,47.58,24.57,47.58,24.57 M48.86,29.98 M48.86,29.98L48.86,29.98L48.86,29.98
		L48.86,29.98z M48.86,29.97 M4.42,24.57 M3.14,29.98 M3.14,29.98L3.14,29.98L3.14,29.98L3.14,29.98z M3.14,29.97 M26,2.15L26,2.15
		L26,2.15L26,2.15c0.02,0,0.04,0,0.06,0h0.01c0.31,0,0.62,0.07,0.9,0.19c0.29,0.13,0.54,0.31,0.75,0.54
		C27.84,3.01,28,3.2,28.18,3.44c0.14,0.19,0.29,0.42,0.47,0.72l0.01,0.01c0.21,0.38,0.41,0.77,0.51,0.98l0,0
		c0.02,0.05,0.06,0.13,0.08,0.18c0.07,0.15,0.15,0.32,0.22,0.48c0.11,0.24,0.19,0.43,0.21,0.48l0,0l0.09,0.21
		c0.27,0.67,0.49,1.37,0.66,2.08c0.12,0.51,0.22,1.03,0.29,1.53l0.12,0.02c0.16,0.03,0.12,0.02,0.18,0.04l0,0l0.1,0.02h0l0.1,0.02h0
		l0.09,0.02h0l0.09,0.02h0c1.87,0.44,3.65,1.12,5.32,2c1.7,0.89,3.26,1.99,4.67,3.25l0,0l0.03,0.03l0,0l0.25,0.23l0.09,0.08
		l0.03,0.03c0.2,0.19,0.4,0.38,0.59,0.58c0.2,0.2,0.39,0.4,0.57,0.6l0.16,0.18l0.04,0.05c0.14,0.16,0.07,0.08,0.13,0.15v0l0.2,0.23
		l0.01,0.01l0.1,0.12l0.09,0.11l0.03,0.04l0.08,0.1l0,0l0,0v0l0.08,0.1c0.01,0.01,0.02,0.02,0.03,0.03l0,0.01l0.02,0.02l0,0
		c0.12,0.15,0.24,0.3,0.35,0.45v0l0.08,0.11h0l0.01,0.01v0l0.13,0.17l0,0l0.08,0.11v0l0.08,0.11l0.01,0.01
		c0.09,0.13,0.18,0.25,0.25,0.35c0.09,0.13,0.16,0.24,0.23,0.33l0.01,0.02l0.03,0.03l0.06,0.1l0.01,0.02l0.03,0.05l0,0l0.04,0.06
		l0.01,0.02c0.01,0.02,0.03,0.05,0.05,0.08l0,0l0,0l0,0l0.01,0.01l0,0l0,0.01l0,0l0,0.01h0c0.02,0.02,0.03,0.05,0.05,0.08l0,0
		l0.01,0.01c0.04,0.06,0.08,0.12,0.11,0.17l0,0l0.11,0.19l0,0l0,0.01v0l0,0l0,0c0.01,0.01,0-0.01,0.05,0.08l0,0l0.09,0.16l0,0
		l0.04,0.06c0.01,0.01,0.02,0.03,0.02,0.04l0.13,0.23l0.14,0.25l0,0l0,0l0,0l0,0.01l0,0l0.04,0.07l0,0l0.05,0.09l0.03,0.06l0,0
		c0.02,0.04,0.02,0.03,0.08,0.16v0l0.07,0.13l0.02,0.04l0.04,0.08l0,0c0.03,0.07,0.06,0.13,0.1,0.2l0,0l0.03,0.06l0.05,0.11
		c0.04,0.09,0.03,0.05,0.06,0.12c0.05,0.11,0.1,0.23,0.15,0.34l0.03,0.07l0,0l0.09,0.21c0.02,0.06,0.05,0.12,0.07,0.17l0.01,0.01
		l0,0c0.01,0.01,0.01,0.03,0.05,0.13l0.05,0.13c0.03,0.07,0.06,0.15,0.09,0.23l0.03,0.07l0,0l0.03,0.08l0,0l0.02,0.05
		c0.01,0.03,0.02,0.06,0.03,0.09l0,0l0,0l0,0c0,0.01,0.01,0.03,0.01,0.04l0,0l0,0l0,0l0.05,0.13l0,0c0.03,0.08,0,0.01,0.01,0.04
		c0,0,0.01,0.03,0.01,0.03l0,0l0.01,0.02c0,0.01,0,0.01,0.01,0.02c0,0,0-0.01,0,0.01l0-0.01l0.05,0.12
		c0.01,0.03,0.02,0.06,0.03,0.09l0,0l0.04,0.1c0.04,0.12,0.08,0.23,0.12,0.35c0.03,0.08,0.03,0.09,0.04,0.1l0,0l0.01,0.04
		c0.02,0.07,0.02,0.06,0.03,0.09c0,0,0-0.01,0,0l0.04,0.13c0.01,0.03,0.01,0.03,0.03,0.08l0.03,0.1l0,0l0.06,0.18l0,0L48.06,26
		l0.03,0.1v0c0.02,0.05,0.03,0.11,0.05,0.19l0,0l0.01,0.04c0.01,0.03,0.02,0.06,0.03,0.11l0.01,0.04c0.04,0.13,0.07,0.25,0.11,0.42
		l0,0l0.02,0.08h0l0.01,0.04v0c0.01,0.05,0.03,0.11,0.05,0.17l0.04,0.15l0,0l0.01,0.07l0,0c0,0.02,0.01,0.03,0.01,0.05l0.01,0.03
		c0.02,0.09,0.04,0.18,0.05,0.26l0.01,0.05v0c0.01,0.03-0.01-0.06,0.02,0.11l0,0l0.01,0.02l0,0l0.02,0.08
		c0.01,0.03,0.01,0.07,0.02,0.11l0.03,0.15v0.01l0.01,0.07v0l0.03,0.13c0.02,0.14,0.01,0.1,0.02,0.14c0.02,0.12,0.01,0.03,0.02,0.11
		c0.01,0.06,0.02,0.09,0.02,0.13c0,0.01,0,0.01,0,0.02l0.01,0.05l0.03,0.21c0.01,0.06,0.02,0.12,0.02,0.18
		c0,0.02,0.01,0.04,0.01,0.06l0,0.04l0,0l0.04,0.28l0.02,0.17c0.01,0.07,0.01,0.15,0.02,0.22c0,0.04,0.01,0.09,0.01,0.15
		c0,0.01,0,0,0.01,0.13l0,0.04l0,0.04c0,0.03,0.01,0.06,0.01,0.1l0,0l0.01,0.15l0.01,0.15c0,0.02,0,0.04,0,0.05l0,0l0,0.06h0l0,0.02
		l0,0.06l0,0l0.01,0.15l0.01,0.15l0,0.04c0,0.07,0-0.02,0,0.01l0,0.03h0c0,0.03,0,0.07,0,0.11c0,0.04,0,0.11,0.01,0.18l0,0.11l0,0
		c0.01,0.09,0.01,0.15,0.01,0.21h0l0,0.22c0,0.3,0,0.11,0,0.24h0l0,0.01l0,0.01c0,0.85-0.05,1.7-0.14,2.55
		c-0.09,0.84-0.23,1.67-0.41,2.49c-0.16,0.73-0.31,1.16-0.48,1.77l-1.05-0.93v0.01l-0.96-0.85c-0.25,0.94-0.56,1.86-0.94,2.75
		c-0.48,1.13-1.05,2.21-1.72,3.23l1.71,1.81l-0.39,0.55c-1.33,1.84-2.91,3.47-4.71,4.84c-1.78,1.36-3.77,2.46-5.9,3.25l0,0
		l-0.53,0.2l-1.5-1.69h-0.01c-0.1-0.12-0.21-0.25-0.31-0.37c-0.82,0.23-1.66,0.42-2.51,0.55c-1.02,0.15-2.06,0.23-3.11,0.23H26H26
		h-0.02c-1.06,0-2.09-0.08-3.11-0.23c-0.85-0.13-1.69-0.31-2.51-0.55c-0.11,0.12-0.21,0.24-0.31,0.37h-0.01l-1.5,1.69l-0.53-0.2l0,0
		c-2.13-0.79-4.12-1.89-5.9-3.25c-1.8-1.37-3.39-3-4.71-4.84l-0.39-0.55l1.71-1.81c-0.66-1.02-1.24-2.1-1.72-3.23
		c-0.37-0.89-0.69-1.81-0.94-2.75L5.08,38.4v-0.01l-1.05,0.93c-0.17-0.61-0.32-1.05-0.48-1.77c-0.18-0.82-0.32-1.65-0.41-2.49
		C3.05,34.22,3,33.37,3,32.52l0-0.01l0-0.01h0c0-0.13,0,0.06,0-0.24l0-0.22h0c0-0.06,0-0.12,0.01-0.21l0,0l0-0.11
		c0-0.07,0-0.15,0.01-0.18c0-0.03,0-0.07,0-0.11h0l0-0.03c0-0.03,0,0.06,0-0.01l0-0.04l0.01-0.15l0.01-0.15l0,0l0-0.06l0-0.02h0
		l0-0.06l0,0c0-0.02,0-0.04,0-0.05l0.01-0.15l0.01-0.15l0,0c0-0.04,0.01-0.07,0.01-0.1l0-0.04l0-0.04c0.01-0.13,0.01-0.12,0.01-0.13
		c0.01-0.06,0.01-0.12,0.01-0.15c0.01-0.07,0.01-0.15,0.02-0.22l0.02-0.17l0.04-0.28l0,0l0-0.04c0-0.02,0.01-0.04,0.01-0.06
		c0.01-0.06,0.02-0.12,0.02-0.18l0.03-0.21l0.01-0.05c0-0.01,0,0,0-0.02c0.01-0.04,0.01-0.07,0.02-0.13c0.01-0.07,0,0.01,0.02-0.11
		c0.01-0.04,0,0.01,0.02-0.14l0.03-0.13v0l0.01-0.07v-0.01l0.03-0.15c0.01-0.04,0.02-0.08,0.02-0.11l0.02-0.08l0,0l0.01-0.02l0,0
		c0.03-0.17,0.02-0.08,0.02-0.11v0l0.01-0.05c0.02-0.08,0.03-0.17,0.05-0.26l0.01-0.03c0.01-0.02,0.01-0.03,0.01-0.05l0,0l0.01-0.07
		l0,0l0.04-0.15c0.02-0.07,0.03-0.13,0.05-0.17v0l0.01-0.04h0L3.7,26.9l0,0c0.04-0.16,0.07-0.29,0.11-0.42l0.01-0.04
		c0.01-0.05,0.02-0.08,0.03-0.11l0.01-0.04l0,0c0.02-0.08,0.04-0.13,0.05-0.19v0L3.94,26l0.02-0.05l0,0l0.06-0.18l0,0l0.03-0.1
		c0.02-0.05,0.02-0.05,0.03-0.08l0.04-0.13c0.01-0.02,0,0,0,0c0.01-0.03,0.01-0.02,0.03-0.09l0.01-0.04l0,0
		c0-0.02,0.01-0.02,0.03-0.1c0.04-0.12,0.08-0.23,0.12-0.35l0.04-0.1l0,0c0.01-0.03,0.02-0.06,0.03-0.09l0.05-0.12l0,0.01
		c0.01-0.02,0.01-0.01,0-0.01c0-0.01,0.01-0.01,0.01-0.02l0.01-0.02l0,0c0-0.01,0.01-0.03,0.01-0.03c0.01-0.03-0.02,0.03,0.01-0.04
		l0,0l0.05-0.13l0,0l0,0l0,0c0,0,0.01-0.03,0.01-0.04l0,0l0,0l0,0c0.01-0.03,0.02-0.06,0.03-0.09l0.02-0.05l0,0l0.03-0.08l0,0
		l0.03-0.07c0.03-0.08,0.06-0.15,0.09-0.23l0.05-0.13c0.04-0.1,0.05-0.11,0.05-0.13l0,0l0.01-0.01c0.03-0.06,0.05-0.12,0.07-0.17
		l0.09-0.21l0,0l0.03-0.07c0.05-0.11,0.1-0.23,0.15-0.34c0.03-0.07,0.02-0.03,0.06-0.12l0.05-0.11l0.03-0.06l0,0
		c0.03-0.07,0.06-0.13,0.1-0.2l0,0l0.04-0.08l0.02-0.04l0.07-0.13v0c0.07-0.13,0.06-0.13,0.08-0.16l0,0l0.03-0.06l0.05-0.09l0,0
		l0.04-0.07l0,0l0-0.01l0,0l0,0l0,0l0.14-0.25l0.13-0.23c0.01-0.01,0.01-0.03,0.02-0.04l0.04-0.06l0,0l0.09-0.16l0,0
		c0.05-0.08,0.04-0.06,0.05-0.08l0,0l0,0v0l0-0.01l0,0l0.11-0.19l0,0c0.03-0.05,0.06-0.11,0.11-0.17l0.01-0.01l0,0
		c0.02-0.03,0.03-0.05,0.05-0.08h0l0-0.01l0,0l0-0.01l0,0l0.01-0.01l0,0l0,0l0,0c0.02-0.02,0.03-0.05,0.05-0.08l0.01-0.02l0.04-0.06
		l0,0l0.03-0.05l0.01-0.02l0.06-0.1l0.03-0.03l0.01-0.02c0.06-0.09,0.14-0.2,0.23-0.33c0.07-0.11,0.16-0.22,0.25-0.35l0.01-0.01
		l0.08-0.11v0l0.08-0.11l0,0l0.13-0.17v0l0.01-0.01h0l0.08-0.11v0c0.11-0.15,0.23-0.3,0.35-0.45l0,0l0.02-0.02l0-0.01
		c0.01-0.01,0.02-0.02,0.03-0.03l0.08-0.1v0l0,0l0,0l0.08-0.1l0.03-0.04l0.09-0.11l0.1-0.12l0.01-0.01l0.2-0.23v0
		c0.06-0.07-0.01,0.01,0.13-0.15l0.04-0.05l0.16-0.18c0.18-0.19,0.37-0.39,0.57-0.6c0.2-0.2,0.4-0.4,0.59-0.58l0.03-0.03l0.09-0.08
		l0.25-0.23l0,0l0.03-0.03l0,0c1.41-1.27,2.98-2.36,4.67-3.25c1.67-0.88,3.45-1.55,5.32-2h0l0.09-0.02h0l0.09-0.02h0l0.1-0.02h0
		l0.11-0.02l0,0c0.06-0.01,0.02,0,0.18-0.04l0.12-0.02c0.07-0.51,0.16-1.02,0.29-1.53c0.17-0.71,0.39-1.41,0.66-2.08l0.09-0.21l0,0
		c0.02-0.05,0.1-0.24,0.21-0.48c0.07-0.16,0.15-0.33,0.22-0.48c0.02-0.05,0.06-0.13,0.08-0.18l0,0c0.1-0.2,0.3-0.6,0.51-0.98
		l0.01-0.01c0.17-0.29,0.33-0.53,0.47-0.72C24,3.2,24.16,3.01,24.29,2.88c0.21-0.23,0.46-0.41,0.75-0.54
		c0.28-0.13,0.59-0.19,0.9-0.19h0.01C25.96,2.15,25.98,2.15,26,2.15z"/>
	<path class="st4" d="M29.55,13.37h-0.02v-0.63c0-0.75-0.04-2.68-0.67-5.04c-0.63-2.36-2.25-4.41-2.99-4.25
		c-0.75,0.16-1.73,1.5-2.72,4.13c-0.79,2.12-0.77,4.8-0.73,5.77c-8.99,1.66-15.8,9.55-15.8,19.02c0,10.69,8.66,19.35,19.34,19.35
		c10.68,0,19.34-8.66,19.34-19.35C45.31,22.92,38.53,15.04,29.55,13.37"/>
	<path class="st5" d="M29.47,13.8c4.38,0.82,8.23,3.15,10.98,6.44c2.75,3.28,4.41,7.52,4.41,12.14c0,5.22-2.11,9.95-5.54,13.37
		c-3.42,3.42-8.14,5.54-13.36,5.54c-5.22,0-9.94-2.11-13.37-5.54c-3.42-3.42-5.53-8.14-5.53-13.37c0-4.64,1.67-8.89,4.45-12.19
		c2.78-3.29,6.65-5.62,11.06-6.42l-0.16-0.87c-4.62,0.84-8.68,3.27-11.58,6.72c-2.9,3.44-4.66,7.9-4.66,12.76
		c0,10.93,8.85,19.79,19.79,19.79c10.93,0,19.79-8.86,19.79-19.79c0-4.84-1.74-9.27-4.62-12.71c-2.88-3.44-6.91-5.88-11.5-6.74
		L29.47,13.8z"/>
	<path class="st6" d="M25.32,27.17L25.32,27.17v0.01c0,0.03,0,0.06,0,0.06v0.35l-0.8,0.68c-0.08,0.07-0.16,0.13-0.24,0.2v0.01h0v0
		c-0.13,0.11-0.24,0.21-0.33,0.28v0.01h0c-0.09,0.08-0.14,0.14-0.14,0.14s-0.33,0.3-0.41,0.37c-0.07,0.07-0.01,0.15-0.01,0.15
		s0.11,0.15,0.19,0.25l0.01,0.01c0.01,0.01,0.01,0.02,0.03,0.03h0v0v0.01h0l0.01,0.01v0.01h0c0.01,0.01,0.03,0.03,0.07,0.03h0.01h0
		h0h0.01h0.01v0h0h0h0l1.56-0.55l0.22,0.02l0.38,1.47l-0.84,0.17v0.1h0.9v0.07h0.07h0.07v-0.07h0.9v-0.1l-0.84-0.17l0.39-1.47
		l0.22-0.02l1.55,0.55h0.01h0.01v0h0h0h0.01h0.01c0.03,0.01,0.06-0.02,0.07-0.03h0v-0.01l0.01-0.01v-0.01h0.01v0h0.01
		c0-0.01,0.01-0.03,0.02-0.03v-0.01h0c0.08-0.1,0.19-0.25,0.19-0.25s0.06-0.07-0.01-0.15c-0.08-0.06-0.41-0.37-0.41-0.37
		s-0.06-0.05-0.15-0.14h0v-0.01c-0.09-0.07-0.21-0.18-0.33-0.28v0h-0.01v-0.01h0c-0.07-0.07-0.16-0.13-0.23-0.2l-0.8-0.68v-0.35
		c0,0,0-0.03,0-0.06v-0.01v0c-0.01-0.26-0.06-0.53-0.18-0.78l-0.02-0.03c0-0.01-0.03-0.07-0.07-0.14V26.2h-0.01v0
		c0-0.03-0.04-0.08-0.08-0.16c-0.06-0.09-0.11-0.14-0.15-0.18c-0.04-0.04-0.11-0.06-0.18-0.06c-0.07,0-0.14,0.02-0.18,0.06
		c-0.04,0.04-0.09,0.09-0.15,0.18c-0.05,0.08-0.08,0.14-0.09,0.16l0,0v0.01c-0.04,0.08-0.07,0.14-0.07,0.14l-0.02,0.03
		C25.38,26.63,25.32,26.9,25.32,27.17"/>
	<polygon class="st7" points="26.01,30.96 26.01,30.96 25.93,30.96 25.03,30.96 25.03,30.86 26.01,30.67 26.98,30.86 26.98,30.96 
		26.08,30.96 	"/>
	<path class="st5" d="M23.71,29.75L23.71,29.75l1.56-0.55l0.22,0.02l-0.12-0.46l-1.81,0.9c0.01,0.01,0.04,0.05,0.05,0.06
		C23.61,29.73,23.64,29.78,23.71,29.75"/>
	<path class="st5" d="M28.3,29.75L28.3,29.75l-1.55-0.55l-0.22,0.02l0.12-0.46l1.81,0.9c-0.01,0.01-0.04,0.05-0.05,0.06
		C28.39,29.73,28.36,29.78,28.3,29.75"/>
	<path class="st7" d="M25.8,34.18h0.41v1.56H25.8V34.18z M25.8,36.51h0.41v1.56H25.8V36.51z M25.8,41.19h0.41v1.56H25.8V41.19z
		 M25.8,43.52h0.41v1.56H25.8V43.52z M25.8,38.85h0.41v1.56H25.8V38.85z M25.8,48.2h0.41v1.56H25.8V48.2z M25.8,50.54h0.41v1.56
		H25.8V50.54z M25.8,45.87h0.41v1.56H25.8V45.87z M25.8,31.84h0.41v1.56H25.8V31.84z"/>
	<path class="st7" d="M8.97,44.78L8.92,44.7l14.01-14.94l-0.01,13.72c-0.01,0.74-0.02,1.79-0.09,2.71v0l0,0.1
		c-0.03,0.24-0.1,0.81-0.29,1.37c-0.01,0.04-0.03,0.07-0.04,0.12c-0.07,0.18-0.15,0.36-0.24,0.56c0,0-0.46,1.11-2.33,3.19l-0.2,0.23
		h-0.01l0,0l-1.36,1.54c-4.1-1.55-7.61-4.28-10.14-7.77L8.97,44.78z"/>
	<path class="st7" d="M43.03,44.78l0.05-0.07L29.08,29.76l0,13.72c0.01,0.74,0.03,1.79,0.1,2.71v0l0.01,0.1
		c0.02,0.24,0.1,0.81,0.29,1.37c0.01,0.04,0.02,0.07,0.04,0.12c0.06,0.18,0.15,0.36,0.24,0.56c0,0,0.46,1.11,2.33,3.19l0.19,0.23h0
		l0,0l1.37,1.54c4.09-1.55,7.61-4.28,10.13-7.77L43.03,44.78z"/>
	<path class="st5" d="M28.26,10.6c-0.19-0.97-0.44-1.78-0.62-2.29c-0.3-0.77-0.77-1.89-1.26-2.42c-0.05-0.05-0.13-0.13-0.22-0.18
		c-0.06-0.03-0.12-0.04-0.16-0.04h0c-0.05,0-0.1,0.01-0.16,0.04c-0.09,0.05-0.17,0.12-0.22,0.18c-0.49,0.54-0.96,1.66-1.26,2.42
		c-0.18,0.51-0.44,1.32-0.63,2.29c0.18-0.64,0.46-1.17,0.66-1.5c0.28-0.44,0.73-1.07,1.19-1.4L26,20.26l0.4-12.56
		c0.47,0.32,0.91,0.96,1.19,1.4C27.8,9.43,28.08,9.96,28.26,10.6"/>
	<path class="st7" d="M25.67,3.94C25.64,3.96,25.62,3.98,25.59,4v0.01c-0.03,0.02-0.06,0.05-0.08,0.07
		c-0.62,0.65-1.24,1.99-1.61,2.91c-0.27,0.69-0.65,1.82-0.88,3.16l-0.01,0.07c-0.05,0.33-0.08,0.66-0.1,0.99v0.01v0.01v0
		c-0.02,0.43-0.04,0.86-0.03,1.29l0.03,1.41l0.01,0.8v2.94v0c0,0.06,0,0.72-0.02,1.15c-0.03,0.48-0.09,1.02-0.19,1.47
		c-0.02,0.07-0.03,0.15-0.05,0.21c0,0-0.05,0.21-0.19,0.55c-0.06,0.16-0.14,0.32-0.23,0.47c-0.14,0.25-0.33,0.54-0.57,0.83
		l-0.01,0.01c-0.06,0.07-0.12,0.14-0.19,0.22l-0.01,0.01c-0.08,0.1-0.2,0.23-0.34,0.37l-0.01,0.01c-0.13,0.15-0.28,0.31-0.45,0.48
		c-0.3,0.31-0.66,0.66-1.06,1.02v0c-0.16,0.14-0.32,0.28-0.49,0.44L19.02,25c-0.19,0.18-0.39,0.36-0.61,0.56L4.53,37.92
		c-0.03-0.13-0.11-0.42-0.15-0.65c-0.33-1.5-0.5-3.07-0.5-4.67c0-0.16,0.01-0.32,0.01-0.48c0-0.05,0-0.1,0-0.15
		c0.01-0.11,0.01-0.21,0.01-0.32c0-0.06,0-0.12,0.01-0.18c0-0.1,0.01-0.2,0.01-0.29c0-0.07,0.01-0.12,0.01-0.19
		c0.01-0.1,0.02-0.19,0.02-0.3c0.01-0.05,0.01-0.11,0.01-0.17C3.99,30.41,4,30.31,4.01,30.2c0-0.05,0.01-0.1,0.01-0.15
		c0.02-0.15,0.04-0.31,0.06-0.46c0-0.03,0-0.05,0-0.08c0.03-0.12,0.04-0.25,0.06-0.38c0-0.06,0.01-0.11,0.02-0.16
		c0.01-0.1,0.03-0.19,0.05-0.29c0.01-0.06,0.02-0.12,0.03-0.18c0.01-0.09,0.03-0.18,0.05-0.27c0.01-0.06,0.03-0.12,0.03-0.18
		c0.02-0.09,0.04-0.18,0.06-0.28c0.01-0.06,0.02-0.11,0.04-0.18c0.02-0.1,0.05-0.2,0.07-0.3c0.01-0.05,0.02-0.1,0.03-0.14
		c0.04-0.15,0.08-0.29,0.11-0.44c0.01-0.04,0.03-0.09,0.04-0.13c0.03-0.1,0.05-0.2,0.09-0.3c0.02-0.07,0.04-0.12,0.06-0.19
		c0.03-0.08,0.05-0.16,0.08-0.25c0.02-0.06,0.04-0.13,0.07-0.19c0.02-0.08,0.05-0.16,0.07-0.23c0.02-0.06,0.05-0.13,0.07-0.19
		c0.03-0.08,0.06-0.16,0.08-0.24c0.02-0.06,0.05-0.13,0.07-0.19c0.03-0.08,0.06-0.17,0.1-0.25c0.02-0.05,0.04-0.11,0.06-0.16
		c0.05-0.13,0.11-0.27,0.16-0.4c0.03-0.06,0.05-0.12,0.08-0.18c0.03-0.08,0.06-0.15,0.1-0.23c0.03-0.07,0.06-0.13,0.09-0.19
		c0.02-0.07,0.06-0.14,0.09-0.21c0.03-0.07,0.06-0.14,0.1-0.2c0.03-0.07,0.06-0.13,0.09-0.19c0.04-0.07,0.07-0.13,0.1-0.21
		c0.03-0.06,0.06-0.12,0.1-0.19c0.03-0.07,0.07-0.14,0.1-0.21c0.03-0.06,0.07-0.12,0.1-0.18c0.08-0.15,0.16-0.3,0.25-0.45
		c0.02-0.04,0.04-0.07,0.06-0.11c0.05-0.08,0.09-0.16,0.13-0.23c0.03-0.05,0.06-0.09,0.09-0.15c0.04-0.07,0.09-0.15,0.14-0.22
		c0.03-0.05,0.06-0.1,0.09-0.15c0.05-0.08,0.1-0.15,0.15-0.23c0.03-0.04,0.06-0.08,0.09-0.13c0.05-0.08,0.1-0.15,0.15-0.23
		c0.03-0.04,0.06-0.08,0.08-0.12c0.06-0.08,0.11-0.16,0.17-0.24c0.01-0.02,0.02-0.03,0.03-0.05c0.21-0.29,0.42-0.58,0.65-0.86
		c0.02-0.02,0.05-0.06,0.07-0.08c0.06-0.08,0.13-0.16,0.19-0.24l0.08-0.09c0.07-0.08,0.13-0.15,0.19-0.23
		c0.03-0.03,0.05-0.05,0.07-0.09c0.07-0.08,0.14-0.16,0.21-0.24l0.05-0.05c0.34-0.37,0.69-0.74,1.05-1.09l0.04-0.04
		c0.08-0.08,0.17-0.16,0.25-0.24l0.06-0.05c0.08-0.08,0.17-0.15,0.26-0.24l0.04-0.04c0.49-0.44,1-0.85,1.52-1.24l0.02-0.01
		c0.1-0.08,0.2-0.15,0.3-0.22l0.03-0.02c0.1-0.07,0.21-0.14,0.31-0.22l0.02-0.01c0.55-0.39,1.11-0.74,1.7-1.07h0
		c0.11-0.06,0.23-0.13,0.35-0.19l0.02,0c0.71-0.39,1.44-0.73,2.2-1.03h0c1.4-0.57,2.86-0.99,4.39-1.26c0.12-1.36,0.44-2.71,0.96-4
		l0.07-0.2c0.02-0.03,0.19-0.44,0.43-0.95V5.7h0V5.69l0.01-0.03c0.06-0.13,0.26-0.55,0.53-1.01c0.34-0.59,0.64-0.94,0.84-1.14
		c0.26-0.28,0.63-0.47,1.04-0.47H26h0c0.41,0,0.79,0.18,1.04,0.47c0.19,0.2,0.49,0.55,0.84,1.14c0.27,0.47,0.46,0.88,0.53,1.01
		l0.02,0.03l0,0.01V5.7c0.24,0.51,0.41,0.91,0.42,0.95l0.08,0.2c0.52,1.29,0.84,2.64,0.96,4c1.52,0.27,2.99,0.69,4.38,1.26h0.01
		c0.76,0.3,1.49,0.64,2.2,1.03l0.02,0c0.12,0.07,0.23,0.13,0.35,0.19c0.59,0.33,1.16,0.68,1.71,1.07l0.01,0.01
		c0.11,0.08,0.21,0.15,0.31,0.22l0.03,0.02c0.1,0.07,0.2,0.15,0.3,0.22l0.02,0.01c0.49,0.37,0.96,0.75,1.41,1.15v0
		c0.03,0.03,0.07,0.06,0.1,0.1l0.05,0.04c0.09,0.08,0.17,0.16,0.25,0.24l0.06,0.05c0.08,0.08,0.16,0.16,0.24,0.24l0.05,0.04
		c0.36,0.35,0.72,0.71,1.05,1.09l0.04,0.05c0.07,0.08,0.15,0.16,0.21,0.24c0.02,0.03,0.05,0.06,0.08,0.09
		c0.06,0.08,0.12,0.16,0.19,0.23l0.08,0.09c0.06,0.08,0.13,0.16,0.19,0.24c0.02,0.03,0.05,0.06,0.07,0.08
		c0.23,0.29,0.44,0.57,0.65,0.86c0.01,0.01,0.02,0.03,0.03,0.05c0.05,0.08,0.11,0.16,0.17,0.24c0.03,0.04,0.06,0.08,0.09,0.12
		c0.05,0.07,0.1,0.15,0.15,0.23c0.03,0.04,0.06,0.09,0.09,0.13c0.04,0.08,0.09,0.15,0.14,0.23c0.02,0.05,0.06,0.09,0.09,0.15
		c0.05,0.07,0.09,0.14,0.14,0.22c0.03,0.06,0.06,0.1,0.09,0.15c0.05,0.07,0.09,0.15,0.14,0.23c0.03,0.03,0.04,0.07,0.06,0.11
		c0.09,0.15,0.17,0.3,0.26,0.45c0.03,0.06,0.07,0.12,0.1,0.18c0.04,0.07,0.07,0.14,0.11,0.21c0.03,0.07,0.07,0.13,0.1,0.19
		c0.04,0.07,0.06,0.13,0.1,0.21c0.03,0.06,0.07,0.13,0.09,0.19c0.04,0.07,0.07,0.14,0.1,0.2c0.03,0.07,0.06,0.14,0.1,0.21
		c0.03,0.06,0.06,0.13,0.09,0.19c0.04,0.08,0.07,0.15,0.1,0.23c0.02,0.06,0.05,0.11,0.08,0.18c0.05,0.13,0.11,0.26,0.16,0.4
		c0.02,0.05,0.04,0.11,0.07,0.16c0.03,0.09,0.06,0.17,0.1,0.25c0.02,0.06,0.04,0.13,0.07,0.19c0.02,0.08,0.05,0.16,0.08,0.24
		c0.02,0.06,0.04,0.13,0.06,0.19c0.03,0.08,0.06,0.15,0.08,0.23c0.02,0.06,0.04,0.13,0.07,0.19c0.02,0.08,0.05,0.17,0.07,0.25
		c0.02,0.07,0.04,0.12,0.06,0.19c0.03,0.1,0.06,0.2,0.08,0.3c0.01,0.04,0.03,0.09,0.04,0.13c0.04,0.14,0.08,0.29,0.11,0.44
		c0.01,0.04,0.02,0.09,0.03,0.14c0.03,0.1,0.05,0.2,0.07,0.3c0.01,0.07,0.02,0.12,0.04,0.18c0.02,0.09,0.04,0.18,0.06,0.28
		c0.01,0.06,0.02,0.12,0.04,0.18c0.01,0.09,0.04,0.18,0.05,0.27c0.01,0.07,0.02,0.12,0.04,0.18c0.01,0.1,0.03,0.19,0.05,0.29
		c0.01,0.05,0.02,0.11,0.03,0.16c0.02,0.13,0.04,0.26,0.05,0.38c0.01,0.03,0.01,0.05,0.01,0.08c0.02,0.15,0.04,0.31,0.06,0.46
		c0,0.05,0,0.1,0.01,0.15c0,0.11,0.02,0.21,0.03,0.32c0,0.06,0.01,0.12,0.01,0.17c0.01,0.1,0.02,0.2,0.02,0.3
		c0,0.07,0.01,0.12,0.01,0.19c0.01,0.1,0.02,0.19,0.02,0.29c0,0.06,0,0.12,0.01,0.18c0.01,0.11,0.01,0.21,0.01,0.32
		c0,0.05,0,0.1,0,0.15c0,0.16,0,0.32,0,0.48c0,1.61-0.17,3.17-0.5,4.67c-0.05,0.24-0.11,0.52-0.15,0.65l-1.44-1.28v0L33.59,25.56
		c-0.22-0.19-0.42-0.38-0.61-0.56l-0.1-0.09c-0.17-0.16-0.33-0.3-0.48-0.44l-0.01,0c-0.4-0.36-0.76-0.71-1.06-1.02
		c-0.16-0.17-0.31-0.33-0.45-0.48l-0.01-0.01c-0.14-0.15-0.25-0.28-0.34-0.37v-0.01h0c-0.06-0.07-0.13-0.14-0.19-0.22v-0.01
		c-0.24-0.29-0.43-0.58-0.57-0.83c-0.08-0.15-0.15-0.31-0.23-0.47c-0.14-0.34-0.19-0.55-0.19-0.55c-0.02-0.07-0.03-0.14-0.05-0.21
		c-0.1-0.44-0.16-0.99-0.18-1.47c-0.03-0.43-0.03-1.09-0.03-1.15v0v-2.94l0.02-0.8l0.03-1.41c0-0.43-0.01-0.86-0.03-1.29v0v-0.01
		v-0.01c-0.02-0.33-0.06-0.66-0.1-0.99l-0.01-0.07c-0.23-1.35-0.62-2.48-0.88-3.16c-0.37-0.92-0.99-2.27-1.61-2.91
		c-0.02-0.02-0.04-0.05-0.07-0.07L26.41,4h0l0-0.01l0,0l0,0C26.08,3.73,25.81,3.85,25.67,3.94"/>
	<path class="st8" d="M18.36,53.29c-4.15-1.54-7.7-4.28-10.25-7.8l14.01-14.86l0,14.61c-0.01,0.43-0.04,1.77-0.28,2.73
		c-0.13,0.51-0.32,1.04-0.6,1.52C20.47,50.81,19,52.55,18.36,53.29"/>
	<path class="st8" d="M33.65,53.29c4.15-1.54,7.7-4.28,10.24-7.8L29.89,30.63l0.01,14.61c0,0.43,0.03,1.77,0.27,2.73
		c0.13,0.51,0.32,1.04,0.6,1.52C31.54,50.81,33.01,52.55,33.65,53.29"/>
	<path class="st6" d="M4.42,37.45c-0.35-1.56-0.54-3.19-0.54-4.86c0-10.88,7.86-19.92,18.22-21.74c-0.05,0.5-0.06,1-0.05,1.51
		l0.05,2.38v3.74v0.01c0,0.09-0.02,1.4-0.36,2.44c-0.05,0.15-0.11,0.3-0.17,0.45h-0.01c0,0.02-0.01,0.03-0.02,0.05
		c-0.05,0.12-0.11,0.23-0.18,0.35c-0.06,0.1-0.12,0.19-0.18,0.3c-0.03,0.03-0.06,0.09-0.1,0.15l-0.02,0.02l-0.01,0.01l-0.01,0.01
		l-0.01,0.01c-0.33,0.44-1.12,1.37-2.72,2.8L4.42,37.45z"/>
	<path class="st6" d="M47.59,37.45c0.35-1.56,0.53-3.19,0.53-4.86c0-10.88-7.86-19.92-18.21-21.74c0.05,0.5,0.06,1,0.05,1.51
		l-0.05,2.38v3.74v0.01c0,0.09,0.01,1.4,0.35,2.44c0.06,0.15,0.12,0.3,0.18,0.45c0.01,0.02,0.02,0.03,0.03,0.05
		c0.06,0.12,0.11,0.23,0.18,0.35c0.06,0.1,0.12,0.19,0.19,0.3c0.02,0.03,0.06,0.09,0.1,0.15l0.02,0.02l0.01,0.01l0.01,0.01l0,0.01
		c0.33,0.44,1.11,1.37,2.72,2.8L47.59,37.45z"/>
</g>
<path d="M69.83,23.93c0,2.6-2.09,4.7-4.69,4.7c-2.6,0-4.73-2.09-4.73-4.7c0-2.6,2.13-4.72,4.73-4.72
	C67.74,19.21,69.83,21.33,69.83,23.93 M75.16,12v18.89h2.21V12H75.16z M100.52,23.99c0.03,2.66-2.32,4.87-4.97,4.73
	c-2.54-0.11-4.53-2.18-4.53-4.73c0-2.57,2.07-4.64,4.61-4.69C98.26,19.24,100.52,21.36,100.52,23.99z M102.65,24.02
	c0.03-3.8-3.13-6.99-6.94-6.9c-2.01,0.03-3.35,0.64-4.72,2.07V12h-2.15v11.77c0,4.28,3.02,7.13,6.96,7.13
	C99.57,30.9,102.65,27.79,102.65,24.02z M116.1,23.93c0,2.6-2.09,4.7-4.7,4.7c-2.6,0-4.72-2.1-4.72-4.7c0-2.6,2.12-4.72,4.72-4.72
	C114,19.21,116.1,21.33,116.1,23.93z M120.41,28.92h-2.05v-4.99c0-3.83-3.05-6.96-6.96-6.96c-3.77,0-6.96,3.1-6.96,6.96
	c0,3.89,3.16,6.96,6.96,6.96c1.96,0,4.11-0.98,4.92-2.12v0.15h-0.01v1.97h4.09V28.92z M126.35,19.74v-2.18h-0.64
	c-1.09,0-2.04,0.28-2.71,0.81c-0.98,0.81-1.32,2.04-1.32,3.52v9.01h2.13v-9.4c0-0.59,0.13-1.07,0.62-1.4
	c0.36-0.25,0.84-0.36,1.37-0.36H126.35z M133,30.79v-2.04h-0.78c-0.44,0-0.67,0.06-1.14-0.25c-0.42-0.28-0.7-0.61-0.7-1.11V19.8h2.6
	v-2.21h-2.63V12h-2.21v14.68c0,1.54,0.36,2.82,1.65,3.66C130.83,31.04,132.61,30.93,133,30.79z M184.27,12v18.89h2.2V12H184.27z
	 M196.27,26.44c0.06-1.45-1.07-3.02-2.68-3.49l-1.73-0.5c-0.89-0.28-1.68-0.81-1.68-1.76c-0.03-1.15,1.06-1.65,2.43-1.68
	c1.42-0.03,3.27,0.92,3.27,0.95v-2.32c-0.14-0.08-1.45-0.73-3.32-0.75c-2.29,0-4.39,1.12-4.53,3.8c-0.08,1.73,0.92,3.13,2.57,3.66
	l1.91,0.59c0.95,0.31,1.51,0.81,1.56,1.62c0.12,1.26-1,2.1-2.6,2.1c-1.54-0.03-2.99-0.67-3.16-0.81v2.32
	c0.19,0.08,1.93,0.78,3.22,0.72C195.01,30.77,196.24,28.68,196.27,26.44z M180.44,22.95h-9.23c0.51-2.21,2.32-3.74,4.61-3.74
	C178.09,19.21,179.93,20.74,180.44,22.95z M182.7,22.95c-0.56-3.55-3.41-5.98-6.88-5.98c-3.74,0-6.98,3.13-6.98,6.96
	c0,3.72,3.1,6.96,6.98,6.96c3.27,0,5.79-2.12,6.68-4.95h-2.4c-0.79,1.59-2.44,2.68-4.28,2.68c-2.15,0.06-4.11-1.51-4.56-3.55h9.37
	c0.67,0,1.37-0.25,1.65-0.55C182.64,24.04,182.78,23.51,182.7,22.95z M167.8,17.3h-2.33l-3.07,10.2l-3.19-10.2h-2.24l3.95,12.32
	c0.25,0.76,0.84,1.31,1.59,1.26c0.64-0.08,1.08-0.53,1.29-1.14L167.8,17.3z M139.97,19.74v-2.18h-0.65c-1.09,0-2.04,0.28-2.71,0.81
	c-0.98,0.81-1.32,2.03-1.32,3.51v9.01h2.13v-9.4c0-0.59,0.14-1.06,0.62-1.4c0.36-0.24,0.84-0.36,1.37-0.36H139.97z M153.17,23.92
	c0,2.6-2.1,4.7-4.7,4.7c-2.6,0-4.72-2.09-4.72-4.7c0-2.59,2.12-4.72,4.72-4.72C151.07,19.2,153.17,21.33,153.17,23.92z
	 M155.43,28.92v-5c0-3.83-3.05-6.96-6.96-6.96c-3.77,0-6.96,3.1-6.96,6.96c0,3.89,3.16,6.96,6.96,6.96c1.96,0,4.11-0.98,4.92-2.12
	v0.16v1.97h4.09v-1.97H155.43z M72.1,28.92v-4.99c0-3.83-3.05-6.96-6.96-6.96c-3.77,0-6.96,3.11-6.96,6.96
	c0,3.89,3.15,6.96,6.96,6.96c1.96,0,4.11-0.98,4.92-2.12v0.15v1.97h4.08v-1.97H72.1z"/>
<path d="M245,30.89v-8.81c0-2.63-2.15-4.7-4.78-4.75c-1.74-0.03-2.99,0.62-4.03,1.99c-1.01-1.37-2.3-1.96-4.03-1.93
	c-2.63,0.03-4.78,2.21-4.78,4.86v8.64h2.01v-8.25c0-1.68,1.28-3.22,2.96-3.16c1.57,0.05,2.72,1.42,2.72,2.96v8.44h2.18v-8.44
	c0-1.65,1.32-3.07,2.97-3.02c1.51,0.08,2.68,1.37,2.68,2.91v8.56H245z M223.58,23.93c0,2.6-2.1,4.7-4.7,4.7
	c-2.6,0-4.72-2.1-4.72-4.7c0-2.6,2.12-4.72,4.72-4.72C221.48,19.2,223.58,21.33,223.58,23.93z M225.84,23.93
	c0-3.86-3.1-6.96-6.96-6.96c-3.86,0-6.96,3.1-6.96,6.96c0,3.83,3.1,6.96,6.96,6.96C222.74,30.89,225.84,27.76,225.84,23.93z
	 M210.62,30.89v-2.21h-1.73c-2.49,0-4.61-1.97-4.61-4.49c0-2.5,1.87-4.4,4.83-4.4h1.48v-2.16h-1.54c-4.17,0-6.88,2.93-6.88,6.61
	c0,3.68,3.13,6.64,6.82,6.64H210.62z M201.14,29.38c-0.03-0.75-0.65-1.37-1.37-1.37c-0.81,0-1.45,0.64-1.45,1.43
	c0,0.81,0.64,1.45,1.42,1.45C200.52,30.89,201.19,30.16,201.14,29.38z"/>
<path class="st9" d="M87.54,30.89l-6.82-6.78l6.16-6.45h-3.41c-2.04,2.2-4.01,4.35-6.1,6.49c2.25,2.24,4.49,4.49,6.73,6.74H87.54z"
	/>
<g>
	<g>
		<path d="M65.86,36.32l0.18,0.07h0.27c0.22,0,0.32,0.11,0.32,0.32c0.17,0.78,0.38,2.16,0.63,4.15c0.25,1.48,0.38,2.87,0.38,4.18
			v0.26c0,1.12-0.36,2.18-1.09,3.17c-0.5,0.6-1.11,0.91-1.83,0.91h-0.04c-1.2,0-2.24-0.77-3.13-2.3c-0.38-0.68-0.57-1.34-0.57-1.98
			v-0.12c0-0.54,0.2-0.93,0.6-1.17l0.11-0.01c0.04,0,0.08,0.04,0.13,0.12h0.09c0.06,0,0.13,0.33,0.22,0.99
			c0.15,0.76,0.32,1.29,0.49,1.62c0.71,1.27,1.36,1.9,1.95,1.9c0.3,0,0.66-0.23,1.07-0.69c0.55-0.74,0.83-1.82,0.83-3.25
			c-0.04-1.34-0.13-2.07-0.26-2.19c-0.08-0.32-0.19-1.03-0.33-2.12c-0.02,0-0.2,0.32-0.55,0.95c-0.72,1.23-1.58,1.85-2.58,1.85
			c-0.65,0-1.07-0.26-1.24-0.77c-0.06-0.22-0.08-0.49-0.08-0.79c0-0.77,0.28-1.79,0.85-3.05c0.24-0.41,0.49-0.61,0.75-0.61h0.1
			c0.24,0,0.42,0.1,0.55,0.3l0.03,0.19c0,0.14-0.11,0.4-0.34,0.77c-0.35,0.79-0.53,1.52-0.53,2.21c0.03,0.4,0.05,0.61,0.06,0.61
			c0.49-0.14,0.99-0.69,1.53-1.64c0.22-0.41,0.44-1.02,0.67-1.82c0.12-0.48,0.23-1.07,0.33-1.76c0.03-0.04,0.07-0.06,0.14-0.06
			l0.25-0.24H65.86z M62.86,37.14l0.04-0.02v0.05l-0.04-0.02V37.14z"/>
		<path d="M69.96,41.43c0.6,0,1.01,0.36,1.24,1.08c0.07,0.2,0.1,0.41,0.1,0.64v0.16c0,0.82-0.31,1.49-0.94,1.99
			c-0.34,0.21-0.65,0.31-0.92,0.31h-0.06c-0.62,0-1.05-0.4-1.31-1.18c-0.06-0.2-0.09-0.41-0.09-0.63v-0.09
			c0-0.53,0.07-1.03,0.23-1.49c0.02-0.04,0.17-0.11,0.43-0.22c0.07-0.05,0.17-0.18,0.32-0.39c0.19-0.12,0.52-0.18,0.99-0.18H69.96z
			 M69.12,42.99l-0.03,0.83c0.02,0.47,0.13,0.7,0.31,0.7c0.25-0.11,0.45-0.3,0.59-0.57c0.12-0.23,0.18-0.46,0.18-0.68V43.2
			c0-0.35-0.13-0.64-0.38-0.87c-0.19,0-0.37,0.12-0.53,0.37c-0.07,0.08-0.13,0.13-0.16,0.15L69.12,42.99z"/>
		<path d="M74.26,41.72c0.22,0,0.39,0.1,0.51,0.29c0.09,1.07,0.26,1.94,0.49,2.63c0.17,0.18,0.25,0.37,0.25,0.56v0.14
			c0,0.1-0.03,0.17-0.11,0.22h-0.22c-0.44,0-0.8-0.41-1.08-1.23l-0.12-0.19c-0.52,0.57-0.9,0.94-1.13,1.08l-0.19-0.03
			c-0.05,0-0.2,0.05-0.46,0.16l-0.09,0.02c-0.25,0-0.4-0.27-0.45-0.81l-0.02-0.27v-0.19c0-0.84,0.18-1.54,0.54-2.1
			c0.14-0.15,0.27-0.23,0.4-0.23c0.16,0,0.33,0.12,0.5,0.35c0,0.17-0.1,0.58-0.29,1.22c-0.04,0.11-0.05,0.27-0.05,0.47v0.07
			c0.27-0.13,0.51-0.48,0.71-1.05c0.28-0.72,0.48-1.08,0.58-1.08L74.26,41.72z"/>
		<path d="M79.3,40.57c0.36,0,0.54,0.08,0.54,0.24c0.04,0.17,0.1,0.3,0.18,0.39v0.04c-1.03,0.52-1.77,1.36-2.24,2.53
			c-0.22,0.62-0.33,1.13-0.33,1.52c-0.35,0.16-0.58,0.24-0.69,0.24c0-0.14-0.15-0.27-0.44-0.4c0-0.2-0.16-0.98-0.48-2.36
			c-0.07-0.28-0.11-0.57-0.11-0.87v-0.24c0.05-0.19,0.23-0.3,0.52-0.34h0.05c0.36,0,0.57,0.25,0.65,0.75l-0.02,0.29
			c0.27-0.23,0.65-0.63,1.15-1.2c0.42-0.39,0.8-0.58,1.16-0.58H79.3z"/>
		<path d="M85.99,40.57c0.36,0,0.54,0.08,0.54,0.24c0.04,0.17,0.1,0.3,0.19,0.39v0.04c-1.03,0.52-1.78,1.36-2.24,2.53
			c-0.22,0.62-0.33,1.13-0.33,1.52c-0.35,0.16-0.58,0.24-0.69,0.24c0-0.14-0.15-0.27-0.44-0.4c0-0.2-0.16-0.98-0.48-2.36
			c-0.07-0.28-0.11-0.57-0.11-0.87v-0.24c0.05-0.19,0.23-0.3,0.53-0.34H83c0.36,0,0.58,0.25,0.65,0.75l-0.02,0.29
			c0.27-0.23,0.65-0.63,1.15-1.2c0.42-0.39,0.8-0.58,1.16-0.58H85.99z"/>
		<path d="M89.7,41.74c0.07,0.25,0.1,0.44,0.1,0.58c0,0.58-0.45,1.05-1.35,1.4v0.02c0.24,0.4,0.55,0.6,0.93,0.6
			c0.53,0,1.09-0.42,1.68-1.26c0.37-0.41,0.65-0.62,0.84-0.62h0.03l0.04,0.04v0.18l-0.02,0.07c0.01,0.03,0.03,0.05,0.07,0.06
			c0.08,0,0.13-0.06,0.15-0.19h0.03v0.02c0,0.2-0.17,0.52-0.51,0.97c-0.06,0.11-0.1,0.22-0.12,0.34c-0.16,0.04-0.24,0.1-0.24,0.2
			c-0.33,0.54-0.81,0.91-1.44,1.13c-0.21,0.05-0.38,0.07-0.51,0.07h-0.18c-0.85,0-1.69-0.61-2.52-1.85l-0.08-1.41v-0.13
			c0-0.58,0.19-0.93,0.56-1.08c0.4-0.22,0.75-0.34,1.06-0.34C88.83,40.55,89.32,40.95,89.7,41.74z M87.98,42.99
			c0.13,0,0.33-0.1,0.61-0.31c0.05-0.15,0.07-0.26,0.07-0.35c0-0.35-0.16-0.59-0.47-0.73l-0.13-0.02c-0.18,0-0.27,0.06-0.27,0.17
			c-0.06,0.12-0.09,0.28-0.09,0.5C87.69,42.6,87.79,42.85,87.98,42.99z"/>
		<path d="M92.39,37.09c0.22,0,0.33,0.08,0.33,0.24c0.09,0.37,0.13,0.76,0.13,1.16l-0.13,2.69v0.28c0,0.81,0.14,1.93,0.42,3.34v0.2
			c0,0.23-0.06,0.36-0.2,0.39c-0.08,0-0.25,0.04-0.51,0.1c-0.07-0.05-0.18-0.13-0.35-0.22c-0.32-1.68-0.47-3.05-0.47-4.09v-0.51
			c0-0.74,0.07-1.49,0.22-2.25c-0.03,0-0.07-0.13-0.09-0.38l-0.14-0.1c0.07,0,0.13-0.22,0.19-0.66c0.2-0.12,0.38-0.19,0.54-0.19
			H92.39z"/>
		<path d="M94.2,38.56c0.29,0,0.48,0.08,0.53,0.22L94.79,39c0,0.22-0.24,0.38-0.71,0.46h-0.12c-0.35-0.03-0.52-0.13-0.52-0.31
			l-0.02-0.07v-0.09c0.09-0.28,0.31-0.42,0.68-0.42H94.2z M94.48,40.51c0.13,0.77,0.2,1.58,0.2,2.42v0.51l-0.03,1.87
			c-0.1,0.06-0.23,0.12-0.42,0.15l-0.13,0.14h-0.02c-0.1,0-0.2-0.08-0.28-0.23c0,0.07-0.01,0.11-0.03,0.11
			c-0.18-0.16-0.27-0.49-0.27-1.01l0.16-2.13c-0.02-0.28-0.03-0.71-0.03-1.29c0-0.49,0.17-0.73,0.51-0.73
			C94.37,40.33,94.48,40.39,94.48,40.51z"/>
		<path d="M98.65,40.44c0.23,0,0.38,0.19,0.46,0.57c0,0.2,0.12,0.85,0.37,1.95c0.17,0.61,0.42,1.12,0.74,1.55
			c0.19,0.29,0.29,0.52,0.29,0.68v0.11c0,0.14-0.08,0.21-0.26,0.21c-0.16,0.1-0.28,0.16-0.34,0.16c-0.32-0.12-0.61-0.38-0.86-0.77
			c-0.13-0.25-0.37-0.79-0.71-1.63l-0.11-0.14c-0.42,0.65-0.78,1.15-1.09,1.5c-0.38,0.39-0.81,0.59-1.31,0.59
			c-0.47,0-0.77-0.24-0.92-0.73L94.9,44.2c0-0.65,0.42-1.47,1.27-2.43c0.53-0.43,1.13-0.79,1.82-1.09c0.19-0.15,0.38-0.23,0.57-0.23
			H98.65z M96.15,44.04h0.02c0.28,0,0.56-0.24,0.84-0.73c0.52-0.65,0.78-1.15,0.78-1.51l-0.02-0.02h-0.04
			c-0.21,0.06-0.58,0.37-1.11,0.92c-0.33,0.42-0.5,0.86-0.5,1.32L96.15,44.04z"/>
		<path d="M101.4,36.55c0.21,0,0.33,0.14,0.37,0.4v0.03c0,0.06-0.07,0.37-0.21,0.92c-0.16,0.95-0.24,1.71-0.24,2.3v0.13l-0.02,0.07
			l0.02,0.07v0.15c0,0.37,0.04,0.75,0.14,1.13c0.49-0.6,1.13-0.9,1.91-0.9c0.6,0.03,1.1,0.1,1.52,0.19c0.13,0.33,0.2,0.65,0.2,0.96
			v0.08c0,1.04-0.56,1.98-1.69,2.82c-0.63,0.38-1.22,0.57-1.77,0.57h-0.11c-0.39,0-0.76-0.17-1.11-0.52
			c-0.09-0.29-0.14-0.57-0.14-0.82l0.06-1.13l-0.11-2.31v-0.2c0-0.58,0.12-1.67,0.35-3.27c0.13-0.45,0.37-0.68,0.73-0.68H101.4z
			 M101.66,44.28c1.43-0.23,2.15-0.83,2.15-1.81l-0.02-0.26c-0.26-0.05-0.47-0.07-0.6-0.07c-0.69,0-1.14,0.4-1.37,1.2
			c-0.08,0.24-0.14,0.55-0.18,0.94H101.66z"/>
		<path d="M106.15,37.09c0.22,0,0.33,0.08,0.33,0.24c0.08,0.37,0.12,0.76,0.12,1.16l-0.12,2.69v0.28c0,0.81,0.14,1.93,0.41,3.34v0.2
			c0,0.23-0.06,0.36-0.2,0.39c-0.08,0-0.25,0.04-0.51,0.1c-0.07-0.05-0.19-0.13-0.35-0.22c-0.31-1.68-0.48-3.05-0.48-4.09v-0.51
			c0-0.74,0.08-1.49,0.22-2.25c-0.03,0-0.07-0.13-0.1-0.38l-0.14-0.1c0.07,0,0.13-0.22,0.19-0.66c0.2-0.12,0.38-0.19,0.55-0.19
			H106.15z"/>
		<path d="M110.27,41.74c0.07,0.25,0.11,0.44,0.11,0.58c0,0.58-0.45,1.05-1.35,1.4v0.02c0.24,0.4,0.55,0.6,0.93,0.6
			c0.53,0,1.09-0.42,1.68-1.26c0.37-0.41,0.65-0.62,0.84-0.62h0.03l0.03,0.04v0.18l-0.02,0.07c0.01,0.03,0.03,0.05,0.07,0.06
			c0.08,0,0.13-0.06,0.15-0.19h0.03v0.02c0,0.2-0.17,0.52-0.51,0.97c-0.06,0.11-0.1,0.22-0.13,0.34c-0.16,0.04-0.24,0.1-0.24,0.2
			c-0.33,0.54-0.81,0.91-1.44,1.13c-0.21,0.05-0.37,0.07-0.5,0.07h-0.18c-0.85,0-1.69-0.61-2.52-1.85l-0.09-1.41v-0.13
			c0-0.58,0.19-0.93,0.56-1.08c0.41-0.22,0.76-0.34,1.06-0.34C109.4,40.55,109.89,40.95,110.27,41.74z M108.56,42.99
			c0.13,0,0.33-0.1,0.61-0.31c0.04-0.15,0.07-0.26,0.07-0.35c0-0.35-0.15-0.59-0.47-0.73l-0.14-0.02c-0.18,0-0.27,0.06-0.27,0.17
			c-0.06,0.12-0.09,0.28-0.09,0.5C108.26,42.6,108.36,42.85,108.56,42.99z"/>
		<path d="M116.74,37.14c0.26,0,0.46,0.13,0.57,0.4c-0.24,1.43-0.35,2.55-0.35,3.38v0.74l0.24,0.02c0.51,0,1.08-0.08,1.7-0.24
			l0.3-0.01c0.26,0,0.4,0.13,0.4,0.38c0,0.38-0.26,0.6-0.77,0.67c-0.23,0.06-0.81,0.12-1.75,0.2c0,0.03-0.04,0.03-0.13,0.03
			l0.11,1.15c0,0.16-0.04,0.3-0.11,0.42c0.09,0.1,0.13,0.24,0.13,0.42v0.18c0,0.4-0.04,0.61-0.13,0.64l-0.45-0.04
			c-0.05,0-0.11,0.04-0.19,0.12c-0.31-0.14-0.47-0.65-0.47-1.51c0-0.79-0.04-1.18-0.13-1.18c-0.11-0.11-0.48-0.17-1.11-0.17
			c-0.28,0-0.48-0.15-0.6-0.46v-0.05c0.14-0.31,0.47-0.47,0.97-0.47c0.27,0.01,0.4,0.02,0.4,0.05c0.09,0,0.15-0.07,0.2-0.22
			l0.05-0.03h0.15l-0.02-0.23c0-1.01,0.1-2.31,0.31-3.9c0.15-0.2,0.35-0.29,0.59-0.29H116.74z"/>
		<path d="M122.48,40.57c0.36,0,0.55,0.08,0.55,0.24c0.04,0.17,0.1,0.3,0.19,0.39v0.04c-1.03,0.52-1.78,1.36-2.24,2.53
			c-0.22,0.62-0.33,1.13-0.33,1.52c-0.34,0.16-0.57,0.24-0.69,0.24c0-0.14-0.14-0.27-0.44-0.4c0-0.2-0.16-0.98-0.48-2.36
			c-0.08-0.28-0.11-0.57-0.11-0.87v-0.24c0.05-0.19,0.23-0.3,0.53-0.34h0.04c0.35,0,0.57,0.25,0.65,0.75l-0.02,0.29
			c0.27-0.23,0.65-0.63,1.15-1.2c0.41-0.39,0.8-0.58,1.16-0.58H122.48z"/>
		<path d="M126.62,40.44c0.23,0,0.38,0.19,0.46,0.57c0,0.2,0.12,0.85,0.36,1.95c0.17,0.61,0.42,1.12,0.75,1.55
			c0.19,0.29,0.29,0.52,0.29,0.68v0.11c0,0.14-0.09,0.21-0.26,0.21c-0.16,0.1-0.28,0.16-0.34,0.16c-0.32-0.12-0.61-0.38-0.87-0.77
			c-0.13-0.25-0.37-0.79-0.7-1.63l-0.11-0.14c-0.42,0.65-0.78,1.15-1.09,1.5c-0.38,0.39-0.81,0.59-1.31,0.59
			c-0.47,0-0.78-0.24-0.92-0.73l-0.02-0.29c0-0.65,0.42-1.47,1.27-2.43c0.53-0.43,1.14-0.79,1.82-1.09
			c0.19-0.15,0.38-0.23,0.57-0.23H126.62z M124.12,44.04h0.02c0.28,0,0.56-0.24,0.84-0.73c0.52-0.65,0.79-1.15,0.79-1.51l-0.02-0.02
			h-0.04c-0.21,0.06-0.57,0.37-1.11,0.92c-0.33,0.42-0.49,0.86-0.49,1.32L124.12,44.04z"/>
		<path d="M131.77,40.87c0.18,0,0.34,0.12,0.47,0.36c-0.09,0.25-0.14,0.4-0.14,0.46l0.03,0.16c-0.24,0.2-0.52,0.97-0.83,2.29
			c-0.29,0.89-0.64,1.34-1.06,1.34c-0.37,0-0.8-0.48-1.29-1.44c-0.62-0.94-0.93-1.53-0.93-1.75v-0.14c0-0.36,0.31-0.54,0.93-0.54
			l0.93,1.72l0.16,0.22c0.35-0.23,0.66-0.84,0.9-1.84c0.2-0.55,0.36-0.83,0.49-0.83l0.19-0.02H131.77z"/>
		<path d="M135.41,41.74c0.07,0.25,0.1,0.44,0.1,0.58c0,0.58-0.45,1.05-1.35,1.4v0.02c0.24,0.4,0.55,0.6,0.93,0.6
			c0.53,0,1.09-0.42,1.68-1.26c0.37-0.41,0.65-0.62,0.84-0.62h0.03l0.04,0.04v0.18l-0.02,0.07c0.01,0.03,0.03,0.05,0.07,0.06
			c0.08,0,0.13-0.06,0.15-0.19h0.04v0.02c0,0.2-0.17,0.52-0.51,0.97c-0.06,0.11-0.1,0.22-0.12,0.34c-0.16,0.04-0.24,0.1-0.24,0.2
			c-0.33,0.54-0.81,0.91-1.44,1.13c-0.21,0.05-0.38,0.07-0.51,0.07h-0.18c-0.85,0-1.69-0.61-2.52-1.85l-0.08-1.41v-0.13
			c0-0.58,0.18-0.93,0.56-1.08c0.4-0.22,0.76-0.34,1.06-0.34C134.54,40.55,135.03,40.95,135.41,41.74z M133.69,42.99
			c0.13,0,0.33-0.1,0.61-0.31c0.05-0.15,0.07-0.26,0.07-0.35c0-0.35-0.15-0.59-0.47-0.73l-0.13-0.02c-0.18,0-0.27,0.06-0.27,0.17
			c-0.06,0.12-0.1,0.28-0.1,0.5C133.4,42.6,133.49,42.85,133.69,42.99z"/>
		<path d="M138.1,37.09c0.22,0,0.33,0.08,0.33,0.24c0.08,0.37,0.12,0.76,0.12,1.16l-0.12,2.69v0.28c0,0.81,0.14,1.93,0.41,3.34v0.2
			c0,0.23-0.07,0.36-0.2,0.39c-0.08,0-0.25,0.04-0.51,0.1c-0.07-0.05-0.18-0.13-0.35-0.22c-0.31-1.68-0.47-3.05-0.47-4.09v-0.51
			c0-0.74,0.07-1.49,0.22-2.25c-0.04,0-0.07-0.13-0.1-0.38l-0.14-0.1c0.08,0,0.14-0.22,0.19-0.66c0.2-0.12,0.38-0.19,0.54-0.19
			H138.1z"/>
		<path d="M142.5,40.82c1.3,0,2.23,0.25,2.81,0.75c0.27,0.36,0.4,0.69,0.4,0.98c0,0.48-0.33,1-0.99,1.54
			c-0.52,0.38-1.03,0.57-1.53,0.57h-0.06c0,2.08,0.06,3.39,0.18,3.95l-0.02,0.02h-0.27c-0.04,0.02-0.07,0.04-0.08,0.09
			c-0.5-0.12-0.75-0.27-0.75-0.43c-0.19-0.73-0.28-1.82-0.28-3.29l0.12-2.17c0-0.28-0.04-0.55-0.12-0.82
			c-0.03,0-0.04,0.04-0.06,0.13h-0.03c-0.03,0-0.06-0.05-0.09-0.15v-0.05c0-0.11,0.06-0.24,0.19-0.37h-0.03
			c-0.04,0-0.07,0.03-0.08,0.1h-0.04v-0.02c0-0.2,0.16-0.4,0.5-0.58L142.5,40.82z M143.16,43.68c0.28,0,0.6-0.11,0.95-0.33
			c0.29-0.27,0.44-0.64,0.44-1.13c-0.42-0.33-0.76-0.49-1.04-0.49c-0.17,0-0.26,0.05-0.26,0.14l-0.07,1.72L143.16,43.68z"/>
		<path d="M149.57,40.44c0.22,0,0.38,0.19,0.45,0.57c0,0.2,0.12,0.85,0.36,1.95c0.17,0.61,0.42,1.12,0.75,1.55
			c0.2,0.29,0.29,0.52,0.29,0.68v0.11c0,0.14-0.09,0.21-0.26,0.21c-0.16,0.1-0.28,0.16-0.34,0.16c-0.32-0.12-0.61-0.38-0.86-0.77
			c-0.13-0.25-0.36-0.79-0.71-1.63l-0.11-0.14c-0.42,0.65-0.78,1.15-1.09,1.5c-0.38,0.39-0.82,0.59-1.31,0.59
			c-0.47,0-0.77-0.24-0.91-0.73l-0.02-0.29c0-0.65,0.42-1.47,1.27-2.43c0.53-0.43,1.13-0.79,1.83-1.09
			c0.19-0.15,0.38-0.23,0.57-0.23H149.57z M147.07,44.04h0.02c0.28,0,0.56-0.24,0.84-0.73c0.52-0.65,0.79-1.15,0.79-1.51l-0.02-0.02
			h-0.04c-0.21,0.06-0.57,0.37-1.11,0.92c-0.33,0.42-0.49,0.86-0.49,1.32L147.07,44.04z"/>
		<path d="M154.58,40.57c0.36,0,0.54,0.08,0.54,0.24c0.04,0.17,0.1,0.3,0.19,0.39v0.04c-1.03,0.52-1.78,1.36-2.24,2.53
			c-0.22,0.62-0.33,1.13-0.33,1.52c-0.34,0.16-0.58,0.24-0.69,0.24c0-0.14-0.15-0.27-0.44-0.4c0-0.2-0.16-0.98-0.48-2.36
			c-0.07-0.28-0.11-0.57-0.11-0.87v-0.24c0.05-0.19,0.23-0.3,0.53-0.34h0.04c0.35,0,0.57,0.25,0.65,0.75l-0.02,0.29
			c0.27-0.23,0.65-0.63,1.15-1.2c0.41-0.39,0.8-0.58,1.16-0.58H154.58z"/>
		<path d="M157.07,37.14c0.27,0,0.46,0.13,0.57,0.4c-0.23,1.43-0.35,2.55-0.35,3.38v0.74l0.24,0.02c0.52,0,1.08-0.08,1.71-0.24
			l0.29-0.01c0.27,0,0.4,0.13,0.4,0.38c0,0.38-0.25,0.6-0.76,0.67c-0.23,0.06-0.81,0.12-1.75,0.2c0,0.03-0.04,0.03-0.13,0.03
			l0.11,1.15c0,0.16-0.04,0.3-0.11,0.42c0.09,0.1,0.13,0.24,0.13,0.42v0.18c0,0.4-0.04,0.61-0.13,0.64l-0.45-0.04
			c-0.05,0-0.11,0.04-0.19,0.12c-0.31-0.14-0.47-0.65-0.47-1.51c0-0.79-0.04-1.18-0.13-1.18c-0.11-0.11-0.48-0.17-1.11-0.17
			c-0.28,0-0.48-0.15-0.61-0.46v-0.05c0.14-0.31,0.47-0.47,0.97-0.47c0.27,0.01,0.4,0.02,0.4,0.05c0.09,0,0.15-0.07,0.19-0.22
			l0.05-0.03h0.15l-0.02-0.23c0-1.01,0.1-2.31,0.31-3.9c0.16-0.2,0.35-0.29,0.6-0.29H157.07z"/>
		<path d="M162.73,40.31c0.15,0.36,0.29,0.8,0.42,1.32c0.24,1.63,0.42,2.69,0.55,3.19c0.04,0,0.07,0.11,0.09,0.33v0.04
			c0,0.2-0.12,0.29-0.38,0.29h-0.04c-0.37,0-0.55-0.07-0.55-0.2c-0.17-0.36-0.31-0.79-0.42-1.31l-0.38-2.29H162
			c-0.41,0.5-0.89,1.46-1.44,2.89c-0.23,0.47-0.36,0.71-0.38,0.71c0-0.04-0.06-0.06-0.18-0.08h-0.26c-0.11,0-0.16-0.05-0.16-0.16
			l-0.21-0.36c0.16-0.58,0.24-1.6,0.24-3.05c0.24-0.14,0.37-0.24,0.38-0.27c0-0.05,0.02-0.08,0.07-0.08
			c0.43,0.06,0.64,0.12,0.64,0.19l-0.05,0.16l0.02,0.02h0.02c0.23-0.22,0.44-0.5,0.63-0.85c0.31-0.45,0.59-0.67,0.84-0.67
			C162.55,40.21,162.73,40.27,162.73,40.31z"/>
		<path d="M167.23,41.74c0.07,0.25,0.11,0.44,0.11,0.58c0,0.58-0.45,1.05-1.35,1.4v0.02c0.24,0.4,0.55,0.6,0.93,0.6
			c0.53,0,1.09-0.42,1.68-1.26c0.36-0.41,0.64-0.62,0.84-0.62h0.03l0.03,0.04v0.18l-0.02,0.07c0.01,0.03,0.03,0.05,0.07,0.06
			c0.08,0,0.13-0.06,0.15-0.19h0.04v0.02c0,0.2-0.17,0.52-0.51,0.97c-0.06,0.11-0.1,0.22-0.12,0.34c-0.16,0.04-0.24,0.1-0.24,0.2
			c-0.33,0.54-0.81,0.91-1.44,1.13c-0.21,0.05-0.38,0.07-0.51,0.07h-0.18c-0.86,0-1.69-0.61-2.52-1.85l-0.09-1.41v-0.13
			c0-0.58,0.18-0.93,0.56-1.08c0.4-0.22,0.75-0.34,1.06-0.34C166.35,40.55,166.85,40.95,167.23,41.74z M165.51,42.99
			c0.13,0,0.33-0.1,0.61-0.31c0.05-0.15,0.07-0.26,0.07-0.35c0-0.35-0.16-0.59-0.47-0.73l-0.13-0.02c-0.18,0-0.27,0.06-0.27,0.17
			c-0.06,0.12-0.1,0.28-0.1,0.5C165.22,42.6,165.32,42.85,165.51,42.99z"/>
		<path d="M172.64,40.57c0.36,0,0.54,0.08,0.54,0.24c0.04,0.17,0.1,0.3,0.18,0.39v0.04c-1.03,0.52-1.78,1.36-2.24,2.53
			c-0.22,0.62-0.33,1.13-0.33,1.52c-0.35,0.16-0.58,0.24-0.69,0.24c0-0.14-0.14-0.27-0.44-0.4c0-0.2-0.16-0.98-0.48-2.36
			c-0.07-0.28-0.11-0.57-0.11-0.87v-0.24c0.06-0.19,0.23-0.3,0.53-0.34h0.04c0.36,0,0.57,0.25,0.65,0.75l-0.02,0.29
			c0.27-0.23,0.65-0.63,1.15-1.2c0.41-0.39,0.8-0.58,1.16-0.58H172.64z"/>
	</g>
</g>
</svg>
