<svg xmlns="http://www.w3.org/2000/svg" width="11.142" height="11.13" viewBox="0 0 11.142 11.13">
  <g id="rating" transform="translate(-0.001 -0.03)">
    <path id="Path_9" data-name="Path 9" d="M17.474,4.6,14.985,7.147l.585,3.607a.349.349,0,0,1-.511.362L12,9.422V.03a.334.334,0,0,1,.316.186l1.537,3.273,3.422.52a.352.352,0,0,1,.2.59Z" transform="translate(-6.428 0)" fill="#fff"/>
    <path id="Path_10" data-name="Path 10" d="M5.572.03V9.422l-3.06,1.695A.348.348,0,0,1,2,10.755l.585-3.607L.1,4.6a.352.352,0,0,1,.2-.59l3.422-.52L5.256.216A.334.334,0,0,1,5.572.03Z" transform="translate(0)" fill="#08f"/>
  </g>
</svg>
